2.2Hzhigh3min_grf.mot
version=1
nRows=20
nColumns 19
inDegrees=yes
endheader
time	1_ground_force_vx	1_ground_force_vy	1_ground_force_vz	1_ground_force_px	1_ground_force_py	1_ground_force_pz	1_ground_torque_x	1_ground_torque_y	1_ground_torque_z	2_ground_force_vx	2_ground_force_vy	2_ground_force_vz	2_ground_force_px	2_ground_force_py	2_ground_force_pz	2_ground_torque_x	2_ground_torque_y	2_ground_torque_z
            1.253500	           20.844402	          374.559806	          -32.013195	           -0.220604	            0.006069	           -0.368987	           -0.048621	           -0.873682	            0.074673	           30.015350	          331.143745	           20.127076	           -0.251589	            0.005581	           -0.699323	            0.049524	            0.546377	            0.033209
            1.254000	           20.938558	          367.887801	          -31.537611	           -0.220460	            0.006069	           -0.368970	           -0.036427	           -0.640022	            0.054867	           30.079297	          326.357579	           19.687619	           -0.251408	            0.005582	           -0.699368	            0.049227	            0.534110	            0.032220
            1.254500	           20.848692	          361.036704	          -31.337472	           -0.220448	            0.006070	           -0.369052	           -0.027703	           -0.479733	            0.041640	           29.908952	          321.570842	           19.154406	           -0.251748	            0.005578	           -0.698713	            0.048718	            0.523797	            0.031200
            1.255000	           20.530829	          355.625133	          -30.534458	           -0.220752	            0.006069	           -0.368777	           -0.024689	           -0.427655	            0.036719	           30.020514	          316.599868	           18.948913	           -0.251504	            0.005580	           -0.698872	            0.041630	            0.439033	            0.026277
            1.255500	           20.533494	          349.133013	          -29.966158	           -0.220413	            0.006067	           -0.368491	           -0.038193	           -0.649393	            0.055738	           30.131829	          311.630902	           18.180283	           -0.251508	            0.005578	           -0.698405	            0.043038	            0.445106	            0.025967
            1.256000	           20.444551	          344.082411	          -29.253879	           -0.220498	            0.006066	           -0.368078	           -0.049428	           -0.831870	            0.070726	           30.377876	          308.318371	           17.792932	           -0.251397	            0.005582	           -0.699224	            0.037647	            0.382097	            0.022051
            1.256500	           20.538725	          336.689601	          -28.827239	           -0.220791	            0.006067	           -0.368514	           -0.056562	           -0.927220	            0.079388	           30.535399	          303.533548	           17.071867	           -0.251511	            0.005581	           -0.699204	            0.038599	            0.383693	            0.021580
            1.257000	           20.770357	          330.918784	          -28.302271	           -0.220393	            0.006067	           -0.368416	           -0.050037	           -0.797206	            0.068182	           30.361854	          299.666571	           16.823508	           -0.251446	            0.005581	           -0.699033	            0.039530	            0.390151	            0.021903
            1.257500	           20.771997	          324.428433	          -28.146674	           -0.220459	            0.006067	           -0.368403	           -0.031837	           -0.497244	            0.043140	           30.331309	          295.065211	           16.103180	           -0.251680	            0.005580	           -0.699095	            0.040040	            0.389510	            0.021258
            1.258000	           20.728608	          318.477267	          -27.621797	           -0.220589	            0.006067	           -0.368291	           -0.021314	           -0.327472	            0.028402	           30.300206	          290.647156	           15.618149	           -0.251392	            0.005580	           -0.698853	            0.041859	            0.401518	            0.021576
            1.258500	           20.823022	          312.886131	          -26.958148	           -0.220644	            0.006065	           -0.367997	           -0.020824	           -0.312900	            0.026959	           30.035661	          286.042943	           15.461058	           -0.251373	            0.005581	           -0.699108	            0.043314	            0.412497	            0.022296
            1.259000	           20.641988	          306.935135	          -26.478786	           -0.220729	            0.006067	           -0.368325	           -0.034451	           -0.512264	            0.044192	           30.283680	          282.178218	           15.024807	           -0.251617	            0.005580	           -0.698963	            0.033798	            0.314921	            0.016768
            1.259500	           20.094274	          301.885034	          -25.902937	           -0.220795	            0.006064	           -0.367703	           -0.051385	           -0.771986	            0.066239	           30.393125	          277.760671	           14.539717	           -0.251583	            0.005579	           -0.698715	            0.033273	            0.304080	            0.015917
            1.260000	           20.096351	          296.114763	          -25.514968	           -0.220524	            0.006066	           -0.368093	           -0.060159	           -0.886421	            0.076379	           30.408829	          273.343119	           13.960810	           -0.251265	            0.005581	           -0.699027	            0.028174	            0.253257	            0.012935
            1.260500	           20.281996	          290.524430	          -25.034970	           -0.220827	            0.006065	           -0.368011	           -0.045989	           -0.658751	            0.056766	           30.472817	          268.556558	           13.615210	           -0.251471	            0.005578	           -0.698424	            0.033791	            0.297801	            0.015098
            1.261000	           20.237560	          285.295900	          -24.873849	           -0.220514	            0.006064	           -0.367747	           -0.026247	           -0.370019	            0.032260	           30.296490	          265.427208	           13.087911	           -0.251274	            0.005581	           -0.698870	            0.036647	            0.321062	            0.015831
            1.261500	           20.285321	          279.165500	          -24.579252	           -0.220263	            0.006064	           -0.367728	           -0.019991	           -0.275117	            0.024223	           29.980399	          262.112206	           12.841583	           -0.250941	            0.005583	           -0.699166	            0.038383	            0.335572	            0.016441
            1.262000	           20.195353	          274.116667	          -24.279676	           -0.220316	            0.006064	           -0.367771	           -0.021239	           -0.288283	            0.025534	           30.045758	          256.957029	           12.588524	           -0.251597	            0.005579	           -0.698690	            0.030868	            0.263987	            0.012933
            1.262500	           20.060745	          268.705328	          -23.522973	           -0.220309	            0.006066	           -0.368246	           -0.041932	           -0.561660	            0.049169	           30.102246	          254.197674	           11.827799	           -0.251506	            0.005580	           -0.699000	            0.030131	            0.254440	            0.011839
            1.263000	           19.742784	          263.834584	          -22.717640	           -0.220686	            0.006063	           -0.367484	           -0.057547	           -0.769041	            0.066219	           30.116785	          250.147096	           11.625631	           -0.251278	            0.005582	           -0.699256	            0.022073	            0.183337	            0.008521
